<svg version="1.1" baseProfile="tiny" id="Layer_1" xmlns="http://www.w3.org/2000/svg" xmlns:xlink="http://www.w3.org/1999/xlink" x="0px" y="0px" width="55px" height="45px" viewBox="0 0 55 45" xml:space="preserve"><path fill="#FFFFFF" d="M0,0v45h55V0H0z M31.769,6.546c1.525-0.002,2.764,1.241,2.771,2.782c0.007,1.519-1.233,2.765-2.76,2.774 c-1.542,0.009-2.784-1.225-2.792-2.771C28.981,7.795,30.227,6.548,31.769,6.546z M16.713,38.454 c-4.158,0.001-7.523-3.366-7.521-7.525c0.003-4.16,3.37-7.519,7.531-7.516c4.154,0.004,7.508,3.36,7.511,7.518 C24.238,35.091,20.877,38.453,16.713,38.454z M29.799,19.16c-0.441-0.82-0.865-1.649-1.296-2.475 c-0.024-0.045-0.049-0.089-0.084-0.151c-1.063,1.186-2.117,2.362-3.182,3.551c0.595,0.244,1.173,0.481,1.749,0.718 c0.455,0.186,0.913,0.363,1.363,0.56c0.696,0.303,1.086,0.844,1.095,1.6c0.013,1.141-0.012,2.283-0.036,3.423 c-0.028,1.353-0.069,2.704-0.115,4.056c-0.01,0.264-0.026,0.538-0.105,0.787c-0.252,0.802-1.095,1.313-1.897,1.181 c-0.889-0.146-1.528-0.861-1.518-1.737c0.008-0.865,0.046-1.73,0.07-2.597c0.036-1.255,0.07-2.509,0.11-3.764 c0.002-0.109-0.041-0.149-0.132-0.188c-1.681-0.686-3.361-1.376-5.042-2.063c-0.7-0.286-1.267-0.721-1.559-1.438 c-0.422-1.036-0.207-1.984,0.442-2.86c0.025-0.034,0.051-0.065,0.078-0.095c1.342-1.486,2.676-2.977,4.029-4.453 c0.519-0.566,1.093-1.082,1.725-1.522c0.816-0.571,1.715-0.674,2.65-0.384c0.27,0.083,0.521,0.263,0.746,0.441 c0.417,0.331,0.737,0.751,0.984,1.225c0.695,1.334,1.394,2.667,2.087,4.002c0.061,0.118,0.117,0.165,0.265,0.153 c1.342-0.115,2.686-0.221,4.028-0.321c0.263-0.02,0.537-0.043,0.794,0.005c0.697,0.13,1.173,0.776,1.133,1.488 c-0.039,0.691-0.581,1.27-1.278,1.337c-0.852,0.082-1.705,0.143-2.558,0.211c-0.949,0.076-1.901,0.132-2.848,0.232 C30.718,20.165,30.167,19.843,29.799,19.16z M38.197,38.454c-4.103-0.022-7.45-3.415-7.434-7.534 c0.017-4.169,3.39-7.527,7.539-7.507c4.183,0.021,7.525,3.395,7.505,7.573C45.787,35.146,42.394,38.477,38.197,38.454z"/></svg>