<svg version="1.1" baseProfile="tiny" id="Layer_1" xmlns="http://www.w3.org/2000/svg" xmlns:xlink="http://www.w3.org/1999/xlink" x="0px" y="0px" width="55px" height="45px" viewBox="0 0 55 45" xml:space="preserve"><path fill="#FFFFFF" d="M0,0v45h55V0H0z M44.41,16.836c0.636,1.899-0.389,3.955-2.288,4.591c-1.899,0.637-3.954-0.388-4.591-2.287 c-0.637-1.9,0.388-3.956,2.287-4.591C41.718,13.913,43.773,14.937,44.41,16.836z M16.759,8.264c1.599-1.206,3.873-0.888,5.08,0.71 c1.206,1.6,0.888,3.874-0.711,5.081c-1.599,1.206-3.873,0.888-5.08-0.711C14.842,11.745,15.16,9.471,16.759,8.264z M10.467,17.22 c0.593-1.914,2.625-2.984,4.538-2.39c1.913,0.593,2.984,2.625,2.391,4.538c-0.594,1.913-2.625,2.983-4.539,2.391 C10.943,21.165,9.874,19.133,10.467,17.22z M10.59,28.163c-0.636-1.899,0.388-3.955,2.288-4.59c1.899-0.638,3.955,0.386,4.591,2.286 c0.636,1.9-0.388,3.955-2.287,4.591C13.282,31.087,11.227,30.063,10.59,28.163z M22.146,36.148c-1.17,1.626-3.437,1.995-5.063,0.825 s-1.995-3.436-0.825-5.063c1.17-1.625,3.437-1.996,5.063-0.825C22.946,32.256,23.316,34.523,22.146,36.148z M27.5,40.333 c-2.003,0-3.627-1.625-3.627-3.628c0-2.002,1.624-3.627,3.627-3.627c2.003,0,3.627,1.625,3.627,3.627 C31.127,38.708,29.503,40.333,27.5,40.333z M27.5,11.921c-2.003,0-3.627-1.624-3.627-3.628c0-2.002,1.624-3.626,3.627-3.626 c2.003,0,3.627,1.624,3.627,3.626C31.127,10.297,29.503,11.921,27.5,11.921z M32.854,8.851c1.17-1.626,3.437-1.996,5.063-0.826 s1.995,3.437,0.825,5.063c-1.17,1.626-3.437,1.996-5.063,0.826C32.053,12.743,31.684,10.477,32.854,8.851z M38.24,36.735 c-1.599,1.207-3.873,0.888-5.079-0.711c-1.207-1.599-0.889-3.873,0.71-5.08c1.6-1.207,3.874-0.888,5.08,0.711 C40.158,33.254,39.84,35.528,38.24,36.735z M44.533,27.78c-0.594,1.914-2.625,2.983-4.539,2.39c-1.913-0.593-2.983-2.625-2.39-4.537 c0.593-1.914,2.625-2.984,4.538-2.391C44.057,23.834,45.127,25.866,44.533,27.78z"/></svg>