<svg version="1.1" baseProfile="tiny" id="Layer_1" xmlns="http://www.w3.org/2000/svg" xmlns:xlink="http://www.w3.org/1999/xlink" x="0px" y="0px" width="55px" height="45px" viewBox="0 0 55 45" xml:space="preserve"><path fill="#FFFFFF" d="M0,0v45h55V0H0z M41.952,26.442v6.566h-3.642V31.01l-2.675,7.388l-3.424-1.241l2.764-7.632l-9.923,10.167 l-2.605-2.545l8.925-9.145l-15.135,6.066l-1.354-3.382l15.658-6.275H9.326v-3.453H30.16l-15.277-6.12l1.354-3.381l15.138,6.064 L22.449,8.38l2.605-2.544L34.979,16l-2.764-7.63l3.424-1.24l2.671,7.371V12.51h3.642v6.491l3.721,3.721L41.952,26.442z"/></svg>