<svg version="1.1" baseProfile="tiny" id="Layer_1" xmlns="http://www.w3.org/2000/svg" xmlns:xlink="http://www.w3.org/1999/xlink" x="0px" y="0px" width="55px" height="45px" viewBox="0 0 55 45" xml:space="preserve"><rect x="0" y="0" width="55" height="45" fill="#003b80" /><path fill-rule="evenodd" fill="#ffffff" d="M0,45V0h55v45H0z M27.5,6C18.387,6,11,13.387,11,22.5c0,0.088,4,4.5,4,4.5s3-4.475,3-4.5 c0-5.247,4.253-9.5,9.5-9.5c5.247,0,9.5,4.253,9.5,9.5c0,5.078-3.987,9.213-9,9.475v7c8.879-0.267,16-7.53,16-16.475 C44,13.387,36.612,6,27.5,6z"/></svg>