<svg version="1.1" baseProfile="tiny" id="Layer_1" xmlns="http://www.w3.org/2000/svg" xmlns:xlink="http://www.w3.org/1999/xlink" x="0px" y="0px" width="55px" height="45px" viewBox="0 0 55 45" xml:space="preserve"><path fill="#FFFFFF" d="M0,45V0h55v45H0z M48,32c-1.938,0-1.253,1-2,1s-2,0.374-2-2V14.5C44,14.422,44.049,8,33,8 c-3.156,0-5.994,1.033-8,2.678C22.994,9.033,20.156,8,17,8C5.951,8,6,14.422,6,14.5v20C6,35.881,7.343,37,9,37s3-1.119,3-2.5V14.937 C13.5,14.341,15.196,14,17,14c1.805,0,3.499,0.347,5,0.944v6.582c-3.493,1.203-6,3.167-6,4.474c0,1.305,2.512,1.402,6,1.816V36.5 c0,1.381,1.344,1.5,3,1.5s3-0.119,3-1.5v-8.684c3.486-0.414,6-0.512,6-1.816c0-1.307-2.507-3.271-6-4.474v-6.582 C29.501,14.347,31.193,14,33,14c1.805,0,3.5,0.341,5,0.937V34.5c0,1.381,1.343,2.5,3,2.5h4.5c1.404,0,4-0.292,4.459-1.564 C50.394,34.23,49.938,32,48,32z"/></svg>