<svg version="1.1" baseProfile="tiny" id="Layer_1" xmlns="http://www.w3.org/2000/svg" xmlns:xlink="http://www.w3.org/1999/xlink" x="0px" y="0px" width="55px" height="45px" viewBox="0 0 55 45" xml:space="preserve"><rect x="0" y="0" width="55" height="45" fill="#003b80" /><path fill="#FFFFFF" d="M0,0v45h55V0H0z M38.803,19.176c-1.327,4.974-4.73,7.64-10.219,8.002c-0.667,2.411-2.069,3.704-4.187,3.894 c0.193,0.147,0.39,0.292,0.571,0.471c1.024,1.012,1.537,2.239,1.537,3.686c0,1.447-0.513,2.684-1.537,3.707 c-1.025,1.026-2.261,1.539-3.708,1.539c-1.417,0-2.638-0.513-3.663-1.539c-1.027-1.023-1.537-2.26-1.537-3.707 c0-1.417,0.503-2.639,1.516-3.662c0.874-0.886,1.922-1.367,3.121-1.486c-0.144-0.105-0.292-0.198-0.432-0.32 c-1.025-0.903-1.538-2.035-1.538-3.391c0-0.452,0.061-0.919,0.181-1.402l1.177-4.385c0.3-1.085,0.888-1.808,1.763-2.17 c0.603-0.271,1.492-0.407,2.667-0.407c0.121,0,0.293,0,0.52,0s0.386,0,0.476,0c1.868,0,2.938-0.511,3.208-1.537 c0.151-0.601-0.013-1.137-0.496-1.604c-0.485-0.468-1.04-0.7-1.673-0.7c-0.633,0-1.619,0.444-2.96,1.333 c-1.342,0.89-2.496,1.333-3.458,1.333c-0.361,0-0.739-0.045-1.13-0.136c-2.171-0.573-3.241-2.035-3.21-4.386 c0-0.513,0.06-1.025,0.181-1.537c0.573-2.14,1.929-3.768,4.069-4.885c1.778-0.905,3.842-1.357,6.194-1.357 c1.266,0,2.414,0.136,3.435,0.407c2.773,0.754,5.036,2.108,6.783,4.069c1.84,2.05,2.756,4.417,2.756,7.098 C39.21,17.095,39.073,18.121,38.803,19.176z"/></svg>