<svg version="1.1" baseProfile="tiny" id="Layer_1" xmlns="http://www.w3.org/2000/svg" xmlns:xlink="http://www.w3.org/1999/xlink" x="0px" y="0px" width="55px" height="45px" viewBox="0 0 55 45" xml:space="preserve"><rect x="0" y="0" width="55" height="45" fill="#003b80" /><path fill="#FFFFFF" d="M25.127,16.111v8.183c0,0.338,0.29,5.736,0.647,5.736h3.726c0.358,0,0.647-5.398,0.647-5.736v-8.183 c0-0.339-0.289-0.614-0.647-0.614h-3.726C25.417,15.498,25.127,15.772,25.127,16.111z"/><path fill="#FFFFFF" d="M29.293,31.405h-3.429c-0.328,0-0.595,0.254-0.595,0.564v3.249c0,0.313,0.267,0.564,0.595,0.564h3.429 c0.326,0,0.595-0.252,0.595-0.564V31.97C29.888,31.659,29.619,31.405,29.293,31.405z"/><path fill="#FFFFFF" d="M0,0v45h55V0H0z M6.514,39.733L27.5,5.268l20.986,34.466H6.514z"/></svg>